<svg width="62" height="62" viewBox="0 0 62 62" fill="none" xmlns="http://www.w3.org/2000/svg">
<g filter="url(#filter0_dd_4148_900)">
<g clip-path="url(#clip0_4148_900)">
<rect x="11" y="7" width="40" height="40" rx="12" fill="#CF000A"/>
</g>
</g>
<path d="M26 36C25.45 36 24.9793 35.8043 24.588 35.413C24.1967 35.0217 24.0007 34.5507 24 34V21H23V19H28V18H34V19H39V21H38V34C38 34.55 37.8043 35.021 37.413 35.413C37.0217 35.805 36.5507 36.0007 36 36H26ZM28 32H30V23H28V32ZM32 32H34V23H32V32Z" fill="white"/>
<defs>
<filter id="filter0_dd_4148_900" x="0" y="0" width="62" height="62" filterUnits="userSpaceOnUse" color-interpolation-filters="sRGB">
<feFlood flood-opacity="0" result="BackgroundImageFix"/>
<feColorMatrix in="SourceAlpha" type="matrix" values="0 0 0 0 0 0 0 0 0 0 0 0 0 0 0 0 0 0 127 0" result="hardAlpha"/>
<feOffset dy="1"/>
<feGaussianBlur stdDeviation="1.5"/>
<feColorMatrix type="matrix" values="0 0 0 0 0 0 0 0 0 0 0 0 0 0 0 0 0 0 0.3 0"/>
<feBlend mode="normal" in2="BackgroundImageFix" result="effect1_dropShadow_4148_900"/>
<feColorMatrix in="SourceAlpha" type="matrix" values="0 0 0 0 0 0 0 0 0 0 0 0 0 0 0 0 0 0 127 0" result="hardAlpha"/>
<feMorphology radius="3" operator="dilate" in="SourceAlpha" result="effect2_dropShadow_4148_900"/>
<feOffset dy="4"/>
<feGaussianBlur stdDeviation="4"/>
<feColorMatrix type="matrix" values="0 0 0 0 0 0 0 0 0 0 0 0 0 0 0 0 0 0 0.15 0"/>
<feBlend mode="normal" in2="effect1_dropShadow_4148_900" result="effect2_dropShadow_4148_900"/>
<feBlend mode="normal" in="SourceGraphic" in2="effect2_dropShadow_4148_900" result="shape"/>
</filter>
<clipPath id="clip0_4148_900">
<rect x="11" y="7" width="40" height="40" rx="12" fill="white"/>
</clipPath>
</defs>
</svg>
