<svg width="104" height="94" viewBox="0 0 104 94" fill="none" xmlns="http://www.w3.org/2000/svg">
<path d="M26 45.6566C26 42.4528 26 40.8548 26.6587 39.4134C27.3173 37.976 28.574 36.8402 31.0787 34.5764L33.9213 32.007C36.426 29.7432 37.6827 28.6074 39.273 28.012C40.8633 27.4167 42.64 27.4167 46.1803 27.4167H57.8197C61.3643 27.4167 63.1323 27.4167 64.727 28.012C66.3217 28.6074 67.574 29.7432 70.0787 32.007L72.9213 34.5764C75.4303 36.8402 76.6783 37.976 77.3413 39.4134C78 40.8548 78 42.4528 78 45.6566V62.6667C78 70.0535 78 73.743 75.4607 76.0382C72.9213 78.3334 68.8393 78.3334 60.6667 78.3334H43.3333C35.1607 78.3334 31.0787 78.3334 28.5393 76.0382C26 73.743 26 70.0535 26 62.6667V45.6566Z" stroke="#555555"/>
<path d="M39.0002 27.4167L26.6025 19.9437C26.4243 19.8359 26.2146 19.7784 26.0002 19.7784C25.7857 19.7784 25.5761 19.8359 25.3979 19.9437L14.1009 26.7548C13.9674 26.8351 13.8553 26.9413 13.7727 27.0656C13.6902 27.1899 13.6392 27.3292 13.6234 27.4735C13.6076 27.6177 13.6275 27.7634 13.6816 27.8999C13.7357 28.0363 13.8227 28.1603 13.9362 28.2627L25.1032 38.3559C25.389 38.6122 25.6155 38.9174 25.7695 39.2536C25.9235 39.5898 26.0019 39.9504 26.0002 40.3143C26.0002 41.8418 27.3739 43.0833 29.0639 43.0833H74.9365C76.6265 43.0833 78.0002 41.8418 78.0002 40.3143C77.9984 39.9504 78.0768 39.5898 78.2308 39.2536C78.3849 38.9174 78.6114 38.6122 78.8972 38.3559L90.0642 28.2627C90.1777 28.1603 90.2647 28.0363 90.3188 27.8999C90.3728 27.7634 90.3927 27.6177 90.377 27.4735C90.3612 27.3292 90.3102 27.1899 90.2277 27.0656C90.1451 26.9413 90.033 26.8351 89.8995 26.7548L78.6069 19.9437C78.4286 19.8359 78.219 19.7784 78.0045 19.7784C77.7901 19.7784 77.5804 19.8359 77.4022 19.9437L65.0002 27.4167" stroke="#555555" stroke-linecap="round"/>
</svg>
