<svg width="239" height="37" viewBox="0 0 239 37" fill="none" xmlns="http://www.w3.org/2000/svg">
<g clip-path="url(#clip0_3024_1189)">
<path fill-rule="evenodd" clip-rule="evenodd" d="M52.8813 35.2401V31.4666C54.9303 32.8064 57.1368 33.4761 59.5011 33.4761C61.9345 33.4761 63.6907 32.9165 64.7675 31.7974C65.8446 30.6785 66.3829 28.845 66.3829 26.2972V3.11865H70.2706V26.591C70.2706 28.633 69.9642 30.3764 69.3511 31.822C68.7377 33.2678 67.9017 34.3415 66.8426 35.0438C65.7829 35.7464 64.6973 36.2443 63.5852 36.5386C62.4733 36.8324 61.2782 36.9794 60.0001 36.9794C57.426 36.9794 55.0527 36.3998 52.8813 35.2401Z" fill="#484445"/>
<path fill-rule="evenodd" clip-rule="evenodd" d="M78.0308 26.0517V11.5474H81.9185V26.2156C81.9185 28.7581 82.5123 30.6199 83.7013 31.8017C84.8901 32.9835 86.7515 33.574 89.2864 33.574C91.786 33.574 93.6382 32.9835 94.8451 31.8017C96.0509 30.6199 96.6543 28.7581 96.6543 26.2156V11.5474H100.541V26.0517C100.541 29.5308 99.5614 32.2226 97.6013 34.125C95.6412 36.028 92.8693 36.9795 89.2864 36.9795C85.7023 36.9795 82.9306 36.028 80.9705 34.125C79.0103 32.2226 78.0308 29.5308 78.0308 26.0517Z" fill="#484445"/>
<path fill-rule="evenodd" clip-rule="evenodd" d="M105.929 18.344C105.929 16.3455 106.712 14.6396 108.28 13.2265C109.847 11.8128 112.242 11.106 115.464 11.106C117.758 11.106 120.052 11.6133 122.346 12.628V16.2313C120.297 15.0857 118.144 14.5119 115.884 14.5119C111.839 14.5119 109.817 15.7894 109.817 18.344C109.817 19.2122 110.307 19.9128 111.288 20.4446C112.268 20.9765 113.468 21.419 114.886 21.7714C116.305 22.1233 117.723 22.5447 119.142 23.0359C120.56 23.5275 121.764 24.3585 122.753 25.5292C123.742 26.7004 124.237 28.1946 124.237 30.0121C124.237 32.1875 123.366 33.8925 121.624 35.1275C119.881 36.3626 117.469 36.9794 114.387 36.9794C111.41 36.9794 108.705 36.3511 106.271 35.0929V31.2651C108.845 32.739 111.498 33.4762 114.23 33.4762C118.31 33.4762 120.35 32.3216 120.35 30.0121C120.35 28.7676 119.859 27.7938 118.879 27.0889C117.898 26.3852 116.698 25.857 115.28 25.5046C113.862 25.1527 112.444 24.7679 111.025 24.35C109.607 23.9322 108.402 23.228 107.413 22.2375C106.424 21.2468 105.929 19.9488 105.929 18.344Z" fill="#484445"/>
<path fill-rule="evenodd" clip-rule="evenodd" d="M132.78 29.2728C132.796 32.2054 135.166 33.6719 139.886 33.6719C140.882 33.6719 141.782 33.5661 142.587 33.3541C143.39 33.1421 144.226 32.7269 145.091 32.1079C145.955 31.4891 146.629 30.4707 147.11 29.0528C147.59 27.6355 147.83 25.8758 147.83 23.774C147.83 20.5321 147.166 18.178 145.838 16.7114C144.509 15.2454 142.359 14.5118 139.387 14.5118C137.167 14.5118 134.964 14.9276 132.78 15.7585V29.2728ZM128.892 29.0702V1.98193H132.78V12.1253C134.93 11.4463 137.132 11.1059 139.387 11.1059C140.614 11.1059 141.767 11.2044 142.845 11.4007C143.922 11.597 145.018 11.9819 146.131 12.5547C147.244 13.1275 148.204 13.8642 149.01 14.7642C149.816 15.6643 150.47 16.8873 150.969 18.4345C151.468 19.9812 151.718 21.7614 151.718 23.774C151.718 25.9752 151.442 27.903 150.89 29.5581C150.337 31.2127 149.658 32.4964 148.853 33.409C148.045 34.3222 147.077 35.0642 145.947 35.6347C144.815 36.2051 143.773 36.572 142.818 36.7349C141.862 36.8977 140.885 36.9793 139.886 36.9793C137.939 36.9793 136.247 36.7547 134.809 36.3061C133.372 35.8573 132.294 35.3389 131.575 34.7516C130.856 34.164 130.273 33.4614 129.825 32.6457C129.378 31.8295 129.111 31.1555 129.024 30.6251C128.935 30.0947 128.892 29.5764 128.892 29.0702Z" fill="#484445"/>
<path fill-rule="evenodd" clip-rule="evenodd" d="M157.67 36.5874V13.5224C161.716 11.9443 166.058 11.1553 170.699 11.1553V14.5612C167.765 14.6272 164.718 15.0607 161.558 15.8623V36.5874H157.67Z" fill="#484445"/>
<path fill-rule="evenodd" clip-rule="evenodd" d="M176.732 28.8943C176.732 32.0143 179.162 33.5741 184.022 33.5741H184.1C188.854 33.5741 191.232 32.063 191.232 29.0403V24.2386C190.043 24.0427 188.453 23.9448 186.46 23.9448C179.975 23.9448 176.732 25.5947 176.732 28.8943ZM172.845 28.8943C172.845 27.7686 173.068 26.7596 173.515 25.8673C173.961 24.9756 174.508 24.2516 175.156 23.6971C175.804 23.1427 176.627 22.6678 177.625 22.2745C178.624 21.8802 179.508 21.5907 180.278 21.4059C181.049 21.2211 181.964 21.0803 183.024 20.9839C184.082 20.887 184.836 20.8311 185.282 20.8143C185.729 20.7985 186.258 20.7902 186.872 20.7902L191.18 21.0294C191.18 18.7565 190.519 17.1345 189.2 16.1638C187.88 15.1936 185.927 14.7077 183.34 14.7077C180.434 14.7077 177.817 15.1082 175.49 15.9083V12.4045C178.132 11.5395 180.819 11.106 183.55 11.106C187.31 11.106 190.178 11.9924 192.154 13.7647C194.131 15.5371 195.12 18.1299 195.12 21.5437V29.0654C195.12 30.6666 194.722 32.0347 193.926 33.1699C193.13 34.305 192.106 35.1259 190.856 35.6316C189.605 36.1385 188.433 36.4893 187.34 36.6852C186.247 36.8815 185.167 36.9794 184.1 36.9794C183.276 36.9794 182.43 36.9302 181.562 36.8323C180.694 36.7339 179.712 36.5087 178.617 36.1563C177.521 35.8041 176.57 35.3538 175.764 34.8045C174.957 34.2558 174.269 33.4694 173.699 32.4452C173.13 31.4216 172.845 30.2378 172.845 28.8943Z" fill="#484445"/>
<path fill-rule="evenodd" clip-rule="evenodd" d="M199.741 18.344C199.741 16.3455 200.524 14.6396 202.091 13.2265C203.658 11.8128 206.054 11.106 209.275 11.106C211.569 11.106 213.864 11.6133 216.159 12.628V16.2313C214.108 15.0857 211.956 14.5119 209.695 14.5119C205.651 14.5119 203.628 15.7894 203.628 18.344C203.628 19.2122 204.118 19.9128 205.1 20.4446C206.079 20.9765 207.279 21.419 208.697 21.7714C210.116 22.1233 211.536 22.5447 212.954 23.0359C214.372 23.5275 215.576 24.3585 216.565 25.5292C217.553 26.7004 218.049 28.1946 218.049 30.0121C218.049 32.1875 217.176 33.8925 215.435 35.1275C213.691 36.3626 211.28 36.9794 208.198 36.9794C205.221 36.9794 202.515 36.3511 200.082 35.0929V31.2651C202.656 32.739 205.31 33.4762 208.041 33.4762C212.121 33.4762 214.162 32.3216 214.162 30.0121C214.162 28.7676 213.67 27.7938 212.69 27.0889C211.71 26.3852 210.51 25.857 209.092 25.5046C207.674 25.1527 206.254 24.7679 204.836 24.35C203.418 23.9322 202.214 23.228 201.224 22.2375C200.235 21.2468 199.741 19.9488 199.741 18.344Z" fill="#484445"/>
<path fill-rule="evenodd" clip-rule="evenodd" d="M223.314 36.5872H227.202V11.5473H223.314V36.5872ZM223.104 7.13717H227.412V3.11865H223.104V7.13717Z" fill="#484445"/>
<path fill-rule="evenodd" clip-rule="evenodd" d="M234.976 36.5874H238.864V2.0166H234.976V36.5874Z" fill="#484445"/>
<path fill-rule="evenodd" clip-rule="evenodd" d="M4.71376 36.0822C1.59169 34.4072 0.521808 30.6955 2.32421 27.7938L17.5573 3.27273C19.3603 0.370497 23.3529 -0.623791 26.4757 1.05168C29.5982 2.72715 30.668 6.43832 28.8652 9.34003L13.632 33.8611C11.8296 36.7628 7.83638 37.7572 4.71376 36.0822Z" fill="#F8C824"/>
<path fill-rule="evenodd" clip-rule="evenodd" d="M41.709 36.0816C38.5864 37.7566 34.5938 36.7628 32.7907 33.8611L17.5576 9.34003C15.7552 6.43832 16.8251 2.72715 19.9471 1.05168C23.0698 -0.623791 27.0625 0.370497 28.8655 3.27273L44.0985 27.7938C45.9015 30.6955 44.8315 34.4066 41.709 36.0816Z" fill="#3D81B4"/>
<path fill-rule="evenodd" clip-rule="evenodd" d="M28.5984 2.88133C28.5551 2.8227 28.5147 2.76301 28.4697 2.70593C28.3911 2.60698 28.307 2.51377 28.2239 2.42059C28.1672 2.35774 28.1138 2.29335 28.0549 2.23261C27.9808 2.15671 27.9016 2.08602 27.8243 2.01427C27.7473 1.94255 27.6722 1.86977 27.5906 1.80118C27.5244 1.74568 27.4548 1.69594 27.387 1.64306C27.287 1.56609 27.1876 1.48808 27.0815 1.41582C27.0198 1.37341 26.9548 1.33572 26.8913 1.2954C26.7751 1.22157 26.6579 1.1488 26.5355 1.08125C26.4641 1.04251 26.3905 1.00743 26.3175 0.970778C26.2031 0.912658 26.0881 0.856634 25.9712 0.805848C25.8786 0.765531 25.7844 0.729928 25.69 0.693801C25.5924 0.656102 25.4943 0.619452 25.3949 0.586466C25.2836 0.549814 25.1714 0.517875 25.0585 0.486461C24.9722 0.462899 24.8858 0.439861 24.7987 0.419442C24.6785 0.391169 24.5567 0.367607 24.435 0.345616C24.3497 0.330957 24.2644 0.316296 24.1785 0.304254C24.0599 0.287499 23.9409 0.275457 23.8215 0.264984C23.7265 0.256607 23.6317 0.249278 23.5375 0.245087C23.4296 0.239852 23.3213 0.238281 23.213 0.238281C23.1045 0.238281 22.9962 0.239852 22.8886 0.245087C22.7937 0.249278 22.6993 0.256607 22.6045 0.264984C22.4849 0.275457 22.3659 0.287499 22.2475 0.304254C22.1617 0.316296 22.0764 0.330957 21.9909 0.345616C21.8691 0.367607 21.7473 0.391169 21.6268 0.419442C21.5403 0.439861 21.4538 0.462899 21.3673 0.486461C21.2545 0.517875 21.1416 0.549814 21.0312 0.586466C20.9318 0.619452 20.8336 0.656102 20.7353 0.693801C20.641 0.729928 20.5473 0.765531 20.4546 0.805848C20.3379 0.856634 20.2228 0.912658 20.1077 0.970778C20.0353 1.00743 19.9618 1.04251 19.8905 1.08125C19.7676 1.1488 19.6503 1.2221 19.5341 1.2954C19.4707 1.33572 19.4061 1.37341 19.3444 1.41582C19.2383 1.48808 19.1383 1.56609 19.0384 1.64358C18.9705 1.69594 18.9009 1.74621 18.8352 1.80118C18.7538 1.86977 18.6786 1.94255 18.6012 2.01427C18.5237 2.08653 18.4446 2.15671 18.371 2.23261C18.3121 2.29335 18.2582 2.35774 18.2021 2.42059C18.1184 2.51377 18.0342 2.60698 17.9562 2.70593C17.9113 2.76301 17.8703 2.8227 17.8277 2.88133C17.748 2.98972 17.6694 3.09915 17.5964 3.2133C16.4384 5.03693 16.3385 7.37002 17.5594 9.33452L23.213 18.4355L28.8665 9.33452C30.0869 7.37002 29.9869 5.03693 28.8296 3.21381C28.7566 3.09915 28.6775 2.98972 28.5984 2.88133Z" fill="#72AC42"/>
</g>
<defs>
<clipPath id="clip0_3024_1189">
<rect width="238" height="37" fill="white" transform="translate(0.937012)"/>
</clipPath>
</defs>
</svg>
