<svg width="28" height="28" viewBox="0 0 28 28" fill="none" xmlns="http://www.w3.org/2000/svg">
<path d="M25.4287 23.5714L20.2345 18.375C21.7919 16.3455 22.519 13.7996 22.2683 11.2538C22.0176 8.70788 20.8079 6.35269 18.8846 4.66593C16.9613 2.97917 14.4684 2.08715 11.9116 2.17083C9.35477 2.25451 6.92552 3.30762 5.11661 5.11652C3.30771 6.92543 2.2546 9.35468 2.17092 11.9115C2.08725 14.4683 2.97926 16.9612 4.66602 18.8845C6.35278 20.8078 8.70797 22.0175 11.2538 22.2682C13.7997 22.5189 16.3456 21.7918 18.3751 20.2344L23.5737 25.4341C23.6958 25.5562 23.8407 25.653 24.0002 25.7191C24.1597 25.7851 24.3307 25.8192 24.5034 25.8192C24.676 25.8192 24.847 25.7851 25.0065 25.7191C25.166 25.653 25.311 25.5562 25.4331 25.4341C25.5552 25.312 25.652 25.167 25.7181 25.0075C25.7841 24.848 25.8182 24.677 25.8182 24.5044C25.8182 24.3317 25.7841 24.1607 25.7181 24.0012C25.652 23.8417 25.5552 23.6968 25.4331 23.5747L25.4287 23.5714ZM4.81259 12.25C4.81259 10.779 5.2488 9.34104 6.06604 8.11795C6.88328 6.89486 8.04486 5.94158 9.40389 5.37865C10.7629 4.81572 12.2583 4.66843 13.7011 4.95541C15.1438 5.24239 16.469 5.95074 17.5092 6.9909C18.5494 8.03105 19.2577 9.35629 19.5447 10.799C19.8317 12.2418 19.6844 13.7372 19.1214 15.0962C18.5585 16.4552 17.6052 17.6168 16.3821 18.4341C15.1591 19.2513 13.7211 19.6875 12.2501 19.6875C10.2782 19.6855 8.38759 18.9012 6.99323 17.5069C5.59886 16.1125 4.81462 14.2219 4.81259 12.25Z" fill="white"/>
</svg>
